<?xml version="1.0" standalone="no"?><!DOCTYPE svg PUBLIC "-//W3C//DTD SVG 1.1//EN" "http://www.w3.org/Graphics/SVG/1.1/DTD/svg11.dtd"><svg t="1530451630723" class="icon" style="" viewBox="0 0 1024 1024" version="1.1" xmlns="http://www.w3.org/2000/svg" p-id="2795" xmlns:xlink="http://www.w3.org/1999/xlink" width="200" height="200"><defs><style type="text/css"></style></defs><path d="M806.8 1007.8H213.3c-10.8 0-19.5-8.7-19.5-19.5v-951c0-10.8 8.7-19.5 19.5-19.5h593.5c10.8 0 19.5 8.7 19.5 19.5v951.1c0 10.7-8.7 19.4-19.5 19.4z" fill="#83C6EF" p-id="2796"></path><path d="M806.7 1007.8H510.1v-990h296.6c10.9 0 19.6 8.8 19.6 19.6v950.8c0 10.8-8.8 19.6-19.6 19.6z" fill="#429BCF" p-id="2797"></path><path d="M754.8 818.9H265.3c-10.9 0-19.8-8.9-19.8-19.8V120.7c0-10.1 8.2-18.3 18.3-18.3h490.9c11 0 19.9 8.9 19.9 19.9v676.8c0 10.9-8.8 19.8-19.8 19.8z" fill="#FFFFFF" p-id="2798"></path><path d="M555.4 79.6h-92.8c-6.4 0-11.6-5.2-11.6-11.6 0-6.4 5.2-11.6 11.6-11.6h92.8c6.4 0 11.6 5.2 11.6 11.6 0 6.4-5.2 11.6-11.6 11.6z" fill="#2D416C" p-id="2799"></path><path d="M515.9 919.5m-39.5 0a39.5 39.5 0 1 0 79 0 39.5 39.5 0 1 0-79 0Z" fill="#2D416C" p-id="2800"></path><path d="M320.6 273.3h142.1v46.5H320.6zM320.6 365h255.6v46.5H320.6zM320.6 448.2h201.1v46.5H320.6z" fill="#D2EDF7" p-id="2801"></path></svg>