<?xml version="1.0" standalone="no"?><!DOCTYPE svg PUBLIC "-//W3C//DTD SVG 1.1//EN" "http://www.w3.org/Graphics/SVG/1.1/DTD/svg11.dtd"><svg t="1529909366038" class="icon" style="" viewBox="0 0 1024 1024" version="1.1" xmlns="http://www.w3.org/2000/svg" p-id="2226" xmlns:xlink="http://www.w3.org/1999/xlink" width="200" height="200"><defs><style type="text/css"></style></defs><path d="M15.246 610.532a501.48 501.48 0 0 0 20.025 72.476h41.757L43.577 704.74c12.288 29.696 27.193 57.912 44.6 84.536L251.45 682.894h117.76L126.976 840.818a543.48 543.48 0 0 0 21.845 23.893l224.143-146.09v280.348a504.612 504.612 0 0 0 60.416 13.198V610.532H15.246zM590.62 1012.28a504.612 504.612 0 0 0 60.416-13.198V721.806l222.322 144.84c22.756-23.211 43.35-48.584 61.44-75.89l-165.66-107.862h117.76l79.758 51.997c4.437-9.103 8.647-18.319 12.516-27.648l-37.32-24.349h46.763a497.48 497.48 0 0 0 20.025-72.476H590.62v401.863zM433.38 11.719a504.612 504.612 0 0 0-60.416 13.198v286.265l-227.67-148.366c-21.39 22.528-40.732 46.99-57.799 73.045l161.337 105.131h-117.76l-75.207-49.038a529.579 529.579 0 0 0-13.995 31.858l26.397 17.18H35.27c-8.42 23.324-15.132 47.56-20.025 72.363H433.38V11.719z m575.374 401.75c-4.893-24.804-11.606-49.039-20.025-72.363h-37.774l30.265-19.684c-12.06-29.696-26.966-58.026-44.146-84.65L776.988 341.106H659.115l239.502-156.103c-7.054-8.306-14.222-16.27-21.845-24.121L651.036 307.996V25.031a504.612 504.612 0 0 0-60.416-13.198v401.635h418.134z" fill="#FFFFFF" p-id="2227"></path><path d="M35.271 683.008c2.617 7.396 5.461 14.564 8.42 21.732l33.45-21.732h-41.87z m6.485-359.196a444.221 444.221 0 0 0-6.485 17.18h32.882l-26.397-17.18z m835.016-162.93c-61.1-63.488-138.696-111.047-225.736-135.85v282.964l225.736-147.114zM372.964 25.032c-88.064 25.03-166.23 73.386-227.67 137.784l227.67 148.366V25.032zM148.82 864.711c60.871 62.69 137.785 109.68 224.143 134.257V718.62L148.82 864.711zM988.73 341.105a584.427 584.427 0 0 0-7.51-19.684l-30.264 19.684h37.774zM651.036 998.969c85.448-24.349 161.679-70.542 222.322-132.324L651.036 721.806V998.97z m328.25-291.726a567.688 567.688 0 0 0 9.443-24.349h-46.763l37.32 24.349z" fill="#002377" p-id="2228"></path><path d="M590.62 1012.28V610.646h418.134c6.258-31.857 9.557-64.853 9.557-98.531s-3.3-66.674-9.557-98.532H590.62V11.947a498.021 498.021 0 0 0-75.207-6.03h-6.826c-25.6 0.113-50.745 2.275-75.207 6.03v401.635H15.246C8.988 445.44 5.69 478.436 5.69 512.114s3.3 66.674 9.557 98.531H433.38v401.636c24.576 3.868 49.607 5.916 75.207 6.03h6.713c25.6-0.227 50.744-2.275 75.32-6.03z" fill="#C2121F" p-id="2229"></path><path d="M769.138 682.894l165.546 107.862c11.833-17.864 22.528-36.523 32.086-55.865l-79.758-51.997H769.138z m7.737-341.788L936.96 236.772a504.067 504.067 0 0 0-38.457-51.77L659.115 341.107h117.76z m-528.043 0L87.495 235.976c-11.719 17.976-22.3 36.75-31.744 56.092l75.207 49.038h117.874z m2.617 341.788L88.292 789.163c11.832 17.977 24.803 35.27 38.684 51.541L369.209 682.78h-117.76z" fill="#C2121F" p-id="2230"></path></svg>