<?xml version="1.0" standalone="no"?><!DOCTYPE svg PUBLIC "-//W3C//DTD SVG 1.1//EN" "http://www.w3.org/Graphics/SVG/1.1/DTD/svg11.dtd"><svg t="1526091330673" class="icon" style="" viewBox="0 0 1024 1024" version="1.1" xmlns="http://www.w3.org/2000/svg" p-id="4730" xmlns:xlink="http://www.w3.org/1999/xlink" width="200" height="200"><defs><style type="text/css"></style></defs><path d="M697.030 407.601h-346.394l228.096 39.095-244.99 199.674h371.733l-219.65-47.541z" p-id="4731" fill="#fff"></path><path d="M516.294 14.933c-275.458 0-498.788 223.33-498.788 498.788 0 275.456 223.33 498.761 498.788 498.761 275.456 0 498.733-223.305 498.733-498.761 0-275.458-223.277-498.788-498.733-498.788zM840.561 424.388l-126.741 107.441 42.125 270.483c-8.446 8.42-8.653 8.42-17.15 8.42l-220.064-135.243-220.533 135.243c-16.892 0-18.628 0-18.628-8.42l30.338-270.483-133.687-118.321-45.702-32.439h-12.902v-1.399l12.902 1.399h262.347l33.811-60.237 84.486-178.534c8.42 0 8.42 0 16.919 0l92.907 178.534 33.811 60.237h228.098c8.446 0 8.446-4.947 8.446 3.524l-50.782 39.795z" p-id="4732" fill="#fff"></path></svg>