<?xml version="1.0" standalone="no"?><!DOCTYPE svg PUBLIC "-//W3C//DTD SVG 1.1//EN" "http://www.w3.org/Graphics/SVG/1.1/DTD/svg11.dtd"><svg t="1530451635518" class="icon" style="" viewBox="0 0 1024 1024" version="1.1" xmlns="http://www.w3.org/2000/svg" p-id="2937" xmlns:xlink="http://www.w3.org/1999/xlink" width="200" height="200"><defs><style type="text/css"></style></defs><path d="M998 997.2H27.3v-677L512.7 29.6 998 320.2z" fill="#2D416C" p-id="2938"></path><path d="M212.5 224.4H832v619.5H212.5z" fill="#FFFFFF" p-id="2939"></path><path d="M474.3 658.7l-447 338.5v-677zM551 658.7l447 338.5v-677z" fill="#429BCF" p-id="2940"></path><path d="M998 997.2H27.3L512.7 630zM278 293.1h196.4v27.1H278zM278 353h260.2v27.1H278zM278 412.8h260.2v27.1H278zM278 469.5h403v27.1H278z" fill="#D2EDF7" p-id="2941"></path><path d="M680 371c-2.4 2.8-5.2 5.1-8.2 6.8-3 1.7-6 2.6-9.1 2.6-3.3 0-6.6-1-9.7-2.9-3.2-1.9-5.7-4.9-7.7-9s-2.9-8.5-2.9-13.3c0-6 1.5-11.9 4.6-17.9 3.1-6 6.8-10.5 11.4-13.4 4.5-3 8.9-4.5 13.2-4.5 3.3 0 6.4 0.9 9.3 2.5 3 1.7 5.5 4.3 7.6 7.8l1.9-8.7h10l-8.1 37.7c-1.1 5.3-1.7 8.2-1.7 8.7 0 1 0.4 1.9 1.1 2.6 0.8 0.7 1.7 1.1 2.8 1.1 2 0 4.6-1.1 7.8-3.4 4.3-3 7.6-7 10.1-12s3.7-10.2 3.7-15.6c0-6.3-1.6-12.1-4.8-17.5-3.2-5.4-8-9.7-14.3-13-6.4-3.2-13.4-4.9-21-4.9-8.8 0-16.8 2.1-24 6.2-7.2 4.1-12.8 10-16.8 17.6-4 7.6-6 15.9-6 24.6 0 9.2 2 17.1 6 23.7s9.7 11.5 17.3 14.7c7.5 3.2 15.9 4.7 25.1 4.7 9.8 0 18-1.6 24.6-4.9 6.6-3.3 11.6-7.3 14.9-12h10.2c-1.9 3.9-5.2 7.9-9.8 12-4.6 4.1-10.2 7.3-16.6 9.7-6.4 2.4-14.1 3.6-23.1 3.6-8.3 0-16-1.1-23-3.2s-13-5.3-18-9.6c-4.9-4.3-8.6-9.2-11.2-14.8-3.2-7.1-4.7-14.7-4.7-22.9 0-9.1 1.9-17.8 5.6-26.1 4.6-10.1 11-17.9 19.4-23.3 8.4-5.4 18.6-8.1 30.6-8.1 9.3 0 17.6 1.9 25 5.7 7.4 3.8 13.2 9.5 17.5 17 3.6 6.5 5.4 13.5 5.4 21.1 0 10.9-3.8 20.5-11.5 28.9-6.8 7.5-14.2 11.3-22.3 11.3-2.6 0-4.7-0.4-6.3-1.2-1.6-0.8-2.8-1.9-3.5-3.4-0.2-1.1-0.6-2.8-0.8-5z m-27.1-15.2c0 5.1 1.2 9.1 3.6 11.9 2.4 2.9 5.2 4.3 8.4 4.3 2.1 0 4.3-0.6 6.6-1.9 2.3-1.3 4.5-3.1 6.6-5.6 2.1-2.5 3.9-5.6 5.2-9.4 1.3-3.8 2-7.6 2-11.4 0-5.1-1.3-9-3.8-11.8-2.5-2.8-5.6-4.2-9.2-4.2-2.4 0-4.6 0.6-6.8 1.8-2.1 1.2-4.2 3.2-6.1 5.9-2 2.7-3.6 6-4.8 9.8-1.1 3.8-1.7 7.3-1.7 10.6z" fill="#FDC223" p-id="2942"></path></svg>