<?xml version="1.0" standalone="no"?><!DOCTYPE svg PUBLIC "-//W3C//DTD SVG 1.1//EN" "http://www.w3.org/Graphics/SVG/1.1/DTD/svg11.dtd"><svg t="1530451106955" class="icon" style="" viewBox="0 0 1024 1024" version="1.1" xmlns="http://www.w3.org/2000/svg" p-id="1597" xmlns:xlink="http://www.w3.org/1999/xlink" width="200" height="200"><defs><style type="text/css"></style></defs><path d="M512 512m-512 0a512 512 0 1 0 1024 0 512 512 0 1 0-1024 0Z" fill="#FDEBED" p-id="1598"></path><path d="M691.2 729.6H332.8c-28.16 0-51.2-23.04-51.2-51.2V422.4h460.8v256c0 28.16-23.04 51.2-51.2 51.2z m-120.32-202.24c-2.56-6.4-8.96-11.52-15.36-14.08-3.84-1.28-8.96-2.56-12.8-2.56h-26.88c-11.52-1.28-23.04 0-34.56 2.56-12.8 3.84-20.48 15.36-19.2 28.16 0 5.12 1.28 11.52 3.84 16.64 3.84 5.12 8.96 8.96 14.08 12.8-3.84 2.56-8.96 5.12-11.52 8.96-3.84 5.12-6.4 11.52-6.4 19.2 0 8.96 3.84 17.92 10.24 23.04 7.68 6.4 16.64 8.96 25.6 8.96h24.32c8.96 0 19.2 0 28.16-2.56 5.12-1.28 10.24-3.84 14.08-7.68 6.4-6.4 10.24-14.08 10.24-23.04 0-6.4-2.56-14.08-6.4-19.2-3.84-3.84-7.68-6.4-11.52-8.96 11.52-3.84 19.2-15.36 17.92-26.88 0-5.12-1.28-10.24-3.84-15.36z m-32 30.72c-1.28 0-2.56 1.28-5.12 1.28h-16.64c-6.4 0-12.8 0-19.2-1.28-7.68-3.84-11.52-12.8-7.68-20.48 1.28-2.56 3.84-5.12 6.4-7.68 6.4-1.28 12.8-2.56 20.48-1.28 6.4 0 12.8 0 19.2 1.28s10.24 7.68 10.24 14.08c1.28 7.68-2.56 12.8-7.68 14.08z m-40.96 23.04c6.4-1.28 12.8-2.56 20.48-1.28 6.4 0 12.8 0 17.92 1.28 6.4 1.28 10.24 7.68 10.24 14.08 1.28 5.12-2.56 11.52-7.68 12.8-1.28 1.28-2.56 1.28-5.12 1.28h-16.64c-6.4 0-12.8 0-19.2-1.28-7.68-3.84-11.52-14.08-6.4-21.76 1.28-1.28 3.84-2.56 6.4-5.12zM627.2 345.6h64c28.16 0 51.2 23.04 51.2 51.2h-115.2v-51.2z m-38.4 51.2c-7.68 0-12.8-5.12-12.8-12.8v-51.2c0-7.68 5.12-12.8 12.8-12.8s12.8 5.12 12.8 12.8v51.2c0 7.68-5.12 12.8-12.8 12.8z m-115.2-51.2h76.8v51.2h-76.8v-51.2z m-38.4 51.2c-7.68 0-12.8-5.12-12.8-12.8v-51.2c0-7.68 5.12-12.8 12.8-12.8s12.8 5.12 12.8 12.8v51.2c0 7.68-5.12 12.8-12.8 12.8z m-102.4-51.2h64v51.2h-115.2c0-28.16 23.04-51.2 51.2-51.2z" fill="#EC3A4E" p-id="1599"></path></svg>