<?xml version="1.0" standalone="no"?><!DOCTYPE svg PUBLIC "-//W3C//DTD SVG 1.1//EN" "http://www.w3.org/Graphics/SVG/1.1/DTD/svg11.dtd"><svg t="1530451098401" class="icon" style="" viewBox="0 0 1024 1024" version="1.1" xmlns="http://www.w3.org/2000/svg" p-id="1467" xmlns:xlink="http://www.w3.org/1999/xlink" width="200" height="200"><defs><style type="text/css"></style></defs><path d="M512 512m-512 0a512 512 0 1 0 1024 0 512 512 0 1 0-1024 0Z" fill="#FDEBED" p-id="1468"></path><path d="M691.2 691.2H332.8c-28.16 0-51.2-23.04-51.2-51.2V384c0-14.08 5.12-26.88 15.36-37.12L512 497.92l215.04-151.04c10.24 10.24 15.36 23.04 15.36 37.12v256c0 28.16-23.04 51.2-51.2 51.2zM308.48 327.68h405.76L512 472.32 308.48 327.68z" fill="#EC3A4E" p-id="1469"></path></svg>