<?xml version="1.0" standalone="no"?><!DOCTYPE svg PUBLIC "-//W3C//DTD SVG 1.1//EN" "http://www.w3.org/Graphics/SVG/1.1/DTD/svg11.dtd"><svg t="1530451092013" class="icon" style="" viewBox="0 0 1024 1024" version="1.1" xmlns="http://www.w3.org/2000/svg" p-id="1337" xmlns:xlink="http://www.w3.org/1999/xlink" width="200" height="200"><defs><style type="text/css"></style></defs><path d="M512 512m-512 0a512 512 0 1 0 1024 0 512 512 0 1 0-1024 0Z" fill="#FDEBED" p-id="1338"></path><path d="M625.92 628.48c-1.28 3.84-3.84 8.96-6.4 11.52l-87.04 93.44c-10.24 11.52-26.88 11.52-37.12 2.56l-2.56-2.56-87.04-93.44c-2.56-3.84-5.12-7.68-6.4-11.52-85.76-62.72-103.68-183.04-42.24-268.8 62.72-85.76 183.04-103.68 268.8-42.24 85.76 62.72 103.68 183.04 42.24 268.8-12.8 16.64-26.88 30.72-42.24 42.24zM512 409.6c-35.84 0-64 28.16-64 64s28.16 64 64 64 64-28.16 64-64-28.16-64-64-64z" fill="#EC3A4E" p-id="1339"></path></svg>