<?xml version="1.0" standalone="no"?><!DOCTYPE svg PUBLIC "-//W3C//DTD SVG 1.1//EN" "http://www.w3.org/Graphics/SVG/1.1/DTD/svg11.dtd"><svg t="1530451114819" class="icon" style="" viewBox="0 0 1024 1024" version="1.1" xmlns="http://www.w3.org/2000/svg" p-id="1727" xmlns:xlink="http://www.w3.org/1999/xlink" width="200" height="200"><defs><style type="text/css"></style></defs><path d="M512 512m-512 0a512 512 0 1 0 1024 0 512 512 0 1 0-1024 0Z" fill="#FDEBED" p-id="1728"></path><path d="M619.52 742.4H404.48c-32 0-58.88-23.04-58.88-51.2v-51.2h332.8v51.2c0 28.16-26.88 51.2-58.88 51.2zM512 665.6c-14.08 0-25.6 11.52-25.6 25.6s11.52 25.6 25.6 25.6 25.6-11.52 25.6-25.6-11.52-25.6-25.6-25.6zM345.6 332.8c0-28.16 26.88-51.2 58.88-51.2h215.04c32 0 58.88 23.04 58.88 51.2v281.6H345.6V332.8z" fill="#EC3A4E" p-id="1729"></path></svg>