<?xml version="1.0" standalone="no"?><!DOCTYPE svg PUBLIC "-//W3C//DTD SVG 1.1//EN" "http://www.w3.org/Graphics/SVG/1.1/DTD/svg11.dtd"><svg t="1530363219186" class="icon" style="" viewBox="0 0 1025 1024" version="1.1" xmlns="http://www.w3.org/2000/svg" p-id="1171" xmlns:xlink="http://www.w3.org/1999/xlink" width="200.1953125" height="200"><defs><style type="text/css"></style></defs><path d="M865.5 610.3l157.7 323.9c6.4 13.2-0.3 24-15 24H19c-14.7 0-21.4-10.8-15-24l157.7-323.9c2.5-5.2 9.2-9.4 15-9.4h135.2c4.2 0 9.8 2.6 12.5 5.8 9.2 10.6 18.5 21 27.8 31.2 8.8 9.7 17.7 19.6 26.6 29.7H218.4c-5.7 0-12.5 4.2-15 9.4L98.9 891.5h829.4L823.8 677c-2.5-5.2-9.2-9.4-15-9.4H648.1c8.8-10.1 17.7-19.9 26.6-29.7 9.3-10.3 18.7-20.6 27.9-31.2 2.7-3.1 8.3-5.7 12.5-5.7h135.5c5.7-0.1 12.4 4.2 14.9 9.3z" fill="#00A9BA" p-id="1172"></path><path d="M490.9 158.1c-136 12.9-229.1 144.6-205.4 279.1 24.1 136.6 150.1 178.7 212.6 332 5.6 13.8 25.1 13.9 30.7 0.1C598.1 599.1 745.4 566 745.4 389c0-135.6-116.3-244-254.5-230.9z m22.5 353.4c-67.7 0-122.5-54.8-122.5-122.5s54.8-122.5 122.5-122.5S635.9 321.3 635.9 389c0 67.6-54.8 122.5-122.5 122.5z" fill="#FF9623" p-id="1173"></path></svg>